<svg width="24" height="24" viewBox="0 0 24 24" fill="none" xmlns="http://www.w3.org/2000/svg">
<mask id="mask0_1809_1101" style="mask-type:alpha" maskUnits="userSpaceOnUse" x="0" y="0" width="24" height="24">
<rect width="24" height="24" fill="#D9D9D9"/>
</mask>
<g mask="url(#mask0_1809_1101)">
<path d="M11.0558 19.6078C11.3506 19.7885 11.6653 19.8763 12 19.8713C12.3347 19.8661 12.6494 19.7731 12.9443 19.5923L17.3595 16.8943C16.5583 16.3558 15.7036 15.9471 14.7952 15.6683C13.8869 15.3895 12.9552 15.2501 12 15.2501C11.0448 15.2501 10.1106 15.3911 9.19725 15.6731C8.28375 15.9552 7.418 16.3571 6.6 16.8788L11.0558 19.6078ZM12 12.7501C12.9025 12.7501 13.6698 12.4341 14.302 11.8021C14.934 11.1699 15.25 10.4026 15.25 9.50006C15.25 8.59756 14.934 7.83023 14.302 7.19806C13.6698 6.56606 12.9025 6.25006 12 6.25006C11.0975 6.25006 10.3302 6.56606 9.698 7.19806C9.066 7.83023 8.75 8.59756 8.75 9.50006C8.75 10.4026 9.066 11.1699 9.698 11.8021C10.3302 12.4341 11.0975 12.7501 12 12.7501ZM11.0558 21.3461L4.3635 17.2481C4.08917 17.0841 3.87667 16.8648 3.726 16.5903C3.57533 16.316 3.5 16.0199 3.5 15.7021V8.29806C3.5 7.98023 3.57533 7.68415 3.726 7.40981C3.87667 7.13531 4.08917 6.91606 4.3635 6.75206L11.0558 2.65406C11.3506 2.47323 11.6653 2.38281 12 2.38281C12.3347 2.38281 12.6494 2.47323 12.9443 2.65406L19.6365 6.75206C19.9108 6.91606 20.1233 7.13531 20.274 7.40981C20.4247 7.68415 20.5 7.98023 20.5 8.29806V15.7021C20.5 16.0199 20.4247 16.316 20.274 16.5903C20.1233 16.8648 19.9108 17.0841 19.6365 17.2481L12.9443 21.3461C12.6494 21.5269 12.3347 21.6173 12 21.6173C11.6653 21.6173 11.3506 21.5269 11.0558 21.3461Z" fill="white"/>
</g>
</svg>
