<svg width="40" height="40" viewBox="0 0 40 40" fill="none" xmlns="http://www.w3.org/2000/svg">
<circle cx="20" cy="20" r="20" fill="#FFFF00"/>
<mask id="mask0_1830_2003" style="mask-type:alpha" maskUnits="userSpaceOnUse" x="8" y="8" width="24" height="24">
<rect x="8" y="8" width="24" height="24" fill="#D9D9D9"/>
</mask>
<g mask="url(#mask0_1830_2003)">
<path d="M19.9983 29.6923C19.5008 29.6923 19.0754 29.5153 18.7223 29.1613C18.3689 28.8073 18.1923 28.3817 18.1923 27.8845H21.8077C21.8077 28.3833 21.6306 28.8093 21.2762 29.1625C20.9219 29.5157 20.4959 29.6923 19.9983 29.6923ZM13.25 26.8845C13.0375 26.8845 12.8594 26.8127 12.7158 26.669C12.5719 26.5252 12.5 26.3469 12.5 26.1343C12.5 25.9218 12.5719 25.7437 12.7158 25.6C12.8594 25.4565 13.0375 25.3848 13.25 25.3848H14.3077V17.923C14.3077 16.5782 14.7228 15.3891 15.553 14.3557C16.383 13.3224 17.4487 12.6615 18.75 12.373V11.75C18.75 11.4028 18.8714 11.1077 19.1143 10.8645C19.3571 10.6215 19.6519 10.5 19.9988 10.5C20.3458 10.5 20.641 10.6215 20.8845 10.8645C21.1282 11.1077 21.25 11.4028 21.25 11.75V11.95C21.0192 12.3218 20.8428 12.7205 20.721 13.146C20.5993 13.5717 20.5385 14.007 20.5385 14.452C20.5385 15.8097 21.0147 16.9696 21.9672 17.9318C22.9198 18.8939 24.0717 19.3814 25.423 19.3943H25.5577C25.6026 19.3943 25.6474 19.3911 25.6923 19.3848V25.3848H26.75C26.9625 25.3848 27.1406 25.4566 27.2843 25.6003C27.4281 25.7441 27.5 25.9223 27.5 26.135C27.5 26.3475 27.4281 26.5256 27.2843 26.6693C27.1406 26.8128 26.9625 26.8845 26.75 26.8845H13.25ZM25.4818 17.202C24.7183 17.202 24.0689 16.9348 23.5337 16.4003C22.9984 15.8658 22.7308 15.2167 22.7308 14.453C22.7308 13.6895 22.998 13.0401 23.5325 12.5048C24.067 11.9696 24.716 11.702 25.4795 11.702C26.2432 11.702 26.8926 11.9693 27.4277 12.5038C27.9631 13.0383 28.2308 13.6873 28.2308 14.4508C28.2308 15.2144 27.9635 15.8638 27.429 16.399C26.8945 16.9343 26.2454 17.202 25.4818 17.202Z" fill="#7C66CA"/>
</g>
</svg>
