<svg width="24" height="24" viewBox="0 0 24 24" fill="none" xmlns="http://www.w3.org/2000/svg">
<mask id="mask0_41_17" style="mask-type:alpha" maskUnits="userSpaceOnUse" x="0" y="0" width="24" height="24">
<rect width="24" height="24" fill="#D9D9D9"/>
</mask>
<g mask="url(#mask0_41_17)">
<path d="M11.0558 19.6078C11.3506 19.7884 11.6653 19.8763 12 19.8713C12.3347 19.8661 12.6494 19.7731 12.9443 19.5923L17.3595 16.8943C16.5583 16.3558 15.7036 15.9471 14.7952 15.6683C13.8869 15.3894 12.9552 15.25 12 15.25C11.0448 15.25 10.1106 15.391 9.19725 15.673C8.28375 15.9552 7.418 16.3571 6.6 16.8788L11.0558 19.6078ZM12 12.75C12.9025 12.75 13.6698 12.434 14.302 11.802C14.934 11.1698 15.25 10.4025 15.25 9.5C15.25 8.5975 14.934 7.83017 14.302 7.198C13.6698 6.566 12.9025 6.25 12 6.25C11.0975 6.25 10.3302 6.566 9.698 7.198C9.066 7.83017 8.75 8.5975 8.75 9.5C8.75 10.4025 9.066 11.1698 9.698 11.802C10.3302 12.434 11.0975 12.75 12 12.75ZM11.0558 21.346L4.3635 17.248C4.08917 17.084 3.87667 16.8648 3.726 16.5903C3.57533 16.3159 3.5 16.0198 3.5 15.702V8.298C3.5 7.98017 3.57533 7.68409 3.726 7.40975C3.87667 7.13525 4.08917 6.916 4.3635 6.752L11.0558 2.654C11.3506 2.47317 11.6653 2.38275 12 2.38275C12.3347 2.38275 12.6494 2.47317 12.9443 2.654L19.6365 6.752C19.9108 6.916 20.1233 7.13525 20.274 7.40975C20.4247 7.68409 20.5 7.98017 20.5 8.298V15.702C20.5 16.0198 20.4247 16.3159 20.274 16.5903C20.1233 16.8648 19.9108 17.084 19.6365 17.248L12.9443 21.346C12.6494 21.5268 12.3347 21.6173 12 21.6173C11.6653 21.6173 11.3506 21.5268 11.0558 21.346Z" fill="#7C66CA"/>
</g>
</svg>
