<svg width="20" height="20" viewBox="0 0 20 20" fill="none" xmlns="http://www.w3.org/2000/svg">
<mask id="mask0_1956_14345" style="mask-type:alpha" maskUnits="userSpaceOnUse" x="0" y="0" width="20" height="20">
<rect width="20" height="20" fill="#D9D9D9"/>
</mask>
<g mask="url(#mask0_1956_14345)">
<path d="M7.64062 9.01953C6.98785 8.36675 6.66146 7.58203 6.66146 6.66536C6.66146 5.7487 6.98785 4.96398 7.64062 4.3112C8.2934 3.65842 9.07812 3.33203 9.99479 3.33203C10.9115 3.33203 11.6962 3.65842 12.349 4.3112C13.0017 4.96398 13.3281 5.7487 13.3281 6.66536C13.3281 7.58203 13.0017 8.36675 12.349 9.01953C11.6962 9.67231 10.9115 9.9987 9.99479 9.9987C9.07812 9.9987 8.2934 9.67231 7.64062 9.01953ZM3.32812 14.9987V14.332C3.32812 13.8598 3.44965 13.4258 3.69271 13.0299C3.93576 12.6341 4.25868 12.332 4.66146 12.1237C5.52257 11.6931 6.39757 11.3702 7.28646 11.1549C8.17535 10.9397 9.07812 10.832 9.99479 10.832C10.9115 10.832 11.8142 10.9397 12.7031 11.1549C13.592 11.3702 14.467 11.6931 15.3281 12.1237C15.7309 12.332 16.0538 12.6341 16.2969 13.0299C16.5399 13.4258 16.6615 13.8598 16.6615 14.332V14.9987C16.6615 15.457 16.4983 15.8494 16.1719 16.1758C15.8455 16.5022 15.4531 16.6654 14.9948 16.6654H4.99479C4.53646 16.6654 4.1441 16.5022 3.81771 16.1758C3.49132 15.8494 3.32812 15.457 3.32812 14.9987Z" fill="#7C66CA"/>
</g>
</svg>
